<?xml version="1.0" standalone="no"?>
<!DOCTYPE svg PUBLIC "-//W3C//DTD SVG 20010904//EN" "http://www.w3.org/TR/2001/REC-SVG-20010904/DTD/svg10.dtd">
<!-- Created using Krita: https://krita.org -->
<svg xmlns="http://www.w3.org/2000/svg" 
    xmlns:xlink="http://www.w3.org/1999/xlink"
    xmlns:krita="http://krita.org/namespaces/svg/krita"
    xmlns:sodipodi="http://sodipodi.sourceforge.net/DTD/sodipodi-0.dtd"
    width="256pt"
    height="256pt"
    viewBox="0 0 256 256">
<defs/>
<path id="shape0" transform="translate(11.8917324978828, 23.8749983786751)" fill="#5b418a" fill-rule="evenodd" stroke="none" stroke-width="1" stroke-linecap="square" stroke-linejoin="bevel" d="M115.983 177.297L117.414 177.425L118.556 178.244L119.409 179.753L119.973 181.953L120.108 203.456L120.139 208.517L121.798 208.518L123.422 208.504L125.012 208.476L126.569 208.435L128.092 208.379L129.581 208.309L131.036 208.225L132.457 208.127L133.844 208.015L135.197 207.889L136.517 207.749L137.802 207.595L139.054 207.426L140.272 207.244L141.456 207.047L142.606 206.837L143.722 206.612L144.804 206.374L145.853 206.121L146.868 205.854L147.848 205.573L148.795 205.278L149.708 204.969L150.587 204.646L151.432 204.309L152.244 203.958L153.021 203.592L153.765 203.213L154.475 202.819L155.15 202.412L155.792 201.99L156.4 201.554L156.975 201.105L157.515 200.641L158.022 200.163L158.494 199.671L158.933 199.165L159.338 198.645L159.709 198.111L160.046 197.562L161.122 195.57L162.192 193.591L163.256 191.626L164.314 189.675L165.365 187.738L166.411 185.815L167.45 183.906L168.483 182.011L169.51 180.13L170.531 178.263L171.545 176.41L172.554 174.572L173.556 172.747L174.552 170.936L175.542 169.139L176.525 167.356L177.503 165.588L178.474 163.833L179.44 162.092L180.398 160.365L181.351 158.653L182.298 156.954L183.238 155.269L184.173 153.599L185.101 151.942L186.023 150.3L186.939 148.671L187.848 147.056L188.752 145.456L189.649 143.869L190.54 142.297L191.425 140.738L192.304 139.194L193.176 137.663L194.043 136.147L194.903 134.644L195.757 133.156L196.605 131.681L197.447 130.221L198.282 128.774L199.111 127.342L199.935 125.924L200.752 124.519L201.563 123.129L202.367 121.753L203.166 120.39L203.958 119.042L204.744 117.708L205.524 116.387L206.298 115.081L207.066 113.789L207.827 112.511L208.582 111.246L209.331 109.996L210.074 108.76L210.811 107.538L211.542 106.33L212.266 105.136L212.984 103.955L213.697 102.789L214.402 101.637L215.102 100.499L215.796 99.375L216.813 97.7202L217.795 96.1063L218.742 94.5322L219.653 92.9969L220.529 91.4993L221.37 90.0384L222.177 88.6131L222.949 87.2225L223.688 85.8654L224.393 84.5408L225.065 83.2476L225.704 81.9849L226.31 80.7515L226.883 79.5464L227.424 78.3686L227.933 77.2169L228.411 76.0905L228.857 74.9882L229.272 73.9089L229.656 72.8517L230.009 71.8154L230.332 70.7991L230.626 69.8016L230.889 68.822L231.123 67.8591L231.328 66.912L231.504 65.9796L231.651 65.0609L231.769 64.1547L231.86 63.2601L231.923 62.376L231.958 61.5013L231.967 60.635L231.948 59.7761L231.902 58.9235L231.83 58.0762L231.732 57.233L231.608 56.3931L231.458 55.5552L231.283 54.7185L231.083 53.8817L230.858 53.044L230.609 52.2041L230.335 51.3612L230.038 50.5141L229.717 49.6617L229.372 48.8031L229.005 47.9372L228.614 47.063L228.201 46.1793L227.766 45.2852L227.309 44.3796L226.83 43.4614L226.329 42.5297L225.807 41.5833L225.265 40.6212L224.702 39.6424L224.118 38.6458L223.515 37.6304L222.891 36.5951L222.248 35.5388L221.586 34.4606L220.905 33.3594L220.595 33.5569L220.231 33.7829L219.813 34.0374L219.343 34.3205L218.819 34.6322L218.242 34.9723L217.612 35.3411L216.928 35.7383L216.191 36.1641L215.401 36.6184L214.557 37.1013L213.66 37.6127L212.71 38.1527L211.706 38.7212L210.65 39.3182L209.54 39.9438L208.376 40.5979L207.159 41.2805L205.889 41.9917L204.566 42.7314L203.19 43.4997L201.76 44.2965L200.277 45.1218L198.74 45.9757L197.15 46.8581L195.507 47.7691L192.186 49.8336L189.236 44.6235L189.453 44.4642L189.728 44.2695L190.06 44.0394L190.45 43.7739L190.897 43.4729L191.401 43.1365L191.962 42.7646L192.581 42.3574L193.257 41.9147L193.99 41.4365L194.781 40.9229L195.629 40.3739L196.534 39.7895L197.497 39.1696L198.517 38.5143L199.594 37.8236L200.729 37.0975L201.921 36.3359L203.17 35.5388L204.477 34.7064L205.841 33.8385L207.262 32.9352L208.741 31.9964L210.277 31.0223L211.87 30.0126L213.521 28.9676L215.229 27.8871L216.994 26.7712L215.941 25.0619L214.898 23.4077L213.865 21.8088L212.842 20.2651L211.83 18.7766L210.827 17.3433L209.835 15.9653L208.852 14.6424L207.88 13.3748L206.918 12.1624L205.966 11.0052L205.024 9.90328L204.092 8.85654L203.17 7.86501L202.259 6.9287L201.357 6.04761L200.466 5.22174L199.585 4.45108L198.714 3.73565L197.852 3.07543L197.002 2.47043L196.161 1.92064L195.33 1.42608L194.509 0.986733L193.699 0.602604L192.899 0.273693L192.108 0L115.983 0.125L39.8583 0L39.068 0.273693L38.2676 0.602604L37.4571 0.986733L36.6365 1.42608L35.8058 1.92064L34.965 2.47043L34.114 3.07543L33.253 3.73565L32.3819 4.45108L31.5006 5.22174L30.6092 6.04761L29.7077 6.9287L28.7962 7.86501L27.8745 8.85654L26.9426 9.90328L26.0007 11.0052L25.0487 12.1624L24.0866 13.3748L23.1143 14.6424L22.132 15.9653L21.1395 17.3433L20.1369 18.7766L19.1242 20.2651L18.1014 21.8088L17.0685 23.4077L16.0255 25.0619L14.9724 26.7712L16.7377 27.8871L18.4456 28.9676L20.0962 30.0126L21.6895 31.0223L23.2255 31.9964L24.7041 32.9352L26.1254 33.8385L27.4894 34.7064L28.7961 35.5388L30.0454 36.3359L31.2374 37.0975L32.3721 37.8236L33.4494 38.5143L34.4695 39.1696L35.4322 39.7895L36.3375 40.3739L37.1856 40.9229L37.9763 41.4365L38.7097 41.9147L39.3858 42.3574L40.0045 42.7646L40.5659 43.1365L41.07 43.4729L41.5168 43.7739L41.9062 44.0394L42.2383 44.2695L42.5131 44.4642L42.7306 44.6235L38.8745 49.5524L36.4594 47.7691L34.8163 46.8581L33.2265 45.9757L31.69 45.1218L30.2068 44.2965L28.7769 43.4997L27.4003 42.7314L26.0771 41.9917L24.8071 41.2805L23.5904 40.5979L22.427 39.9438L21.3169 39.3182L20.2601 38.7212L19.2566 38.1527L18.3064 37.6127L17.4095 37.1013L16.5659 36.6184L15.7756 36.1641L15.0386 35.7383L14.3549 35.3411L13.7245 34.9723L13.1474 34.6322L12.6236 34.3205L12.1531 34.0374L11.7359 33.7829L11.372 33.5569L11.0614 33.3594L10.3803 34.4606L9.7182 35.5388L9.07531 36.5951L8.45193 37.6304L7.84834 38.6458L7.26483 39.6424L6.70165 40.6212L6.1591 41.5833L5.63744 42.5297L5.13696 43.4614L4.65793 44.3796L4.20062 45.2852L3.76532 46.1793L3.35231 47.063L2.96185 47.9372L2.59422 48.8031L2.2497 49.6617L1.92858 50.5141L1.63111 51.3612L1.35759 52.2041L1.10828 53.044L0.883474 53.8817L0.683436 54.7185L0.508445 55.5552L0.358778 56.3931L0.234713 57.233L0.136526 58.0762L0.0644938 58.9235L0.0188928 59.7761L0 60.635L0.00809196 61.5013L0.0434454 62.376L0.106337 63.2601L0.197044 64.1547L0.315842 65.0609L0.463008 65.9796L0.63882 66.912L0.843553 67.8591L1.07748 68.822L1.34089 69.8016L1.63405 70.7991L1.95724 71.8154L2.31073 72.8517L2.6948 73.9089L3.10973 74.9882L3.5558 76.0905L4.03328 77.2169L4.54245 78.3686L5.08358 79.5464L5.65696 80.7515L6.26286 81.9849L6.90155 83.2476L7.57331 84.5408L8.27842 85.8654L9.01716 87.2225L9.78979 88.6131L10.5966 90.0384L11.4379 91.4993L12.3139 92.9969L13.2249 94.5322L14.1712 96.1063L15.1531 97.7202L16.1708 99.375L16.8643 100.499L17.5641 101.637L18.27 102.789L18.9821 103.955L19.7003 105.136L20.4247 106.33L21.1553 107.538L21.8921 108.76L22.6351 109.996L23.3842 111.246L24.1395 112.511L24.9009 113.789L25.6686 115.081L26.4424 116.387L27.2224 117.708L28.0085 119.042L28.8008 120.39L29.5993 121.753L30.404 123.129L31.2149 124.519L32.0319 125.924L32.8551 127.342L33.6844 128.774L34.52 130.221L35.3617 131.681L36.2096 133.156L37.0636 134.644L37.9239 136.147L38.7903 137.663L39.6628 139.194L40.5416 140.738L41.4265 142.297L42.3176 143.869L43.2149 145.456L44.1183 147.056L45.0279 148.671L45.9437 150.3L46.8657 151.942L47.7938 153.599L48.7281 155.269L49.6686 156.954L50.6152 158.653L51.568 160.365L52.527 162.092L53.4922 163.833L54.4635 165.588L55.4411 167.356L56.4247 169.139L57.4146 170.936L58.4106 172.747L59.4128 174.572L60.4212 176.41L61.4358 178.263L62.4565 180.13L63.4834 182.011L64.5165 183.906L65.5557 185.815L66.6011 187.738L67.6527 189.675L68.7105 191.626L69.7744 193.591L70.8445 195.57L71.9208 197.562L72.2579 198.111L72.6289 198.645L73.0337 199.165L73.4724 199.671L73.945 200.163L74.4515 200.641L74.9919 201.105L75.5661 201.554L76.1742 201.99L76.8161 202.412L77.492 202.819L78.2017 203.213L78.9453 203.592L79.7228 203.958L80.5341 204.309L81.3794 204.646L82.2585 204.969L83.1714 205.278L84.1183 205.573L85.099 205.854L86.1136 206.121L87.1621 206.374L88.2444 206.612L89.3607 206.837L90.5108 207.047L91.6947 207.244L92.9126 207.426L94.1643 207.595L95.4499 207.749L96.7694 207.889L98.1227 208.015L99.5099 208.127L100.931 208.225L102.386 208.309L103.875 208.379L105.398 208.435L106.954 208.476L108.545 208.504L110.169 208.518L111.827 208.517L111.994 181.953L112.557 179.753L113.41 178.244L114.552 177.425L115.983 177.297M189.535 89.625L189.51 87.6998L189.436 85.7869L189.314 83.8868L189.144 82.0001L188.926 80.1274L188.662 78.2693L188.352 76.4265L187.996 74.5995L187.595 72.789L187.151 70.9955L186.662 69.2197L186.131 67.4621L185.557 65.7234L184.941 64.0042L184.284 62.305L183.586 60.6265L182.849 58.9693L182.071 57.334L181.256 55.7211L180.401 54.1314L179.51 52.5653L178.581 51.0236L177.616 49.5067L176.615 48.0154L175.579 46.5502L174.508 45.1117L173.404 43.7006L172.266 42.3173L171.095 40.9626L169.892 39.6371L168.657 38.3413L167.392 37.0758L166.096 35.8413L164.771 34.6384L163.416 33.4676L162.033 32.3296L160.622 31.225L159.183 30.1543L157.718 29.1182L156.227 28.1173L154.71 27.1522L153.168 26.2235L151.602 25.3318L150.012 24.4777L148.399 23.6618L146.764 22.8847L145.107 22.147L143.428 21.4494L141.729 20.7924L140.01 20.1766L138.271 19.6027L136.514 19.0712L134.738 18.5827L132.944 18.1379L131.134 17.7373L129.307 17.3816L127.464 17.0714L125.606 16.8073L123.733 16.5898L121.846 16.4196L119.946 16.2972L118.033 16.2234L116.108 16.1986L114.183 16.2234L112.27 16.2972L110.37 16.4196L108.483 16.5898L106.611 16.8073L104.753 17.0714L102.91 17.3816L101.083 17.7373L99.2723 18.1379L97.4788 18.5827L95.703 19.0712L93.9454 19.6027L92.2067 20.1766L90.4874 20.7924L88.7883 21.4494L87.1098 22.147L85.4525 22.8847L83.8172 23.6618L82.2044 24.4777L80.6146 25.3318L79.0486 26.2235L77.5068 27.1522L75.99 28.1173L74.4987 29.1182L73.0335 30.1543L71.595 31.225L70.1838 32.3296L68.8006 33.4676L67.4459 34.6384L66.1204 35.8413L64.8246 37.0758L63.5591 38.3413L62.3246 39.6371L61.1217 40.9626L59.9509 42.3173L58.8129 43.7006L57.7082 45.1117L56.6376 46.5502L55.6015 48.0154L54.6006 49.5067L53.6355 51.0236L52.7068 52.5653L51.8151 54.1314L50.9609 55.7211L50.1451 57.334L49.368 58.9693L48.6303 60.6265L47.9327 62.305L47.2757 64.0042L46.6599 65.7234L46.0859 67.4621L45.5544 69.2197L45.066 70.9955L44.6212 72.789L44.2206 74.5995L43.8649 76.4265L43.5547 78.2693L43.2905 80.1274L43.073 82.0001L42.9028 83.8868L42.7805 85.7869L42.7067 87.6998L42.6819 89.625L42.7067 91.5502L42.7805 93.4631L42.9028 95.3632L43.073 97.2499L43.2905 99.1226L43.5547 100.981L43.8649 102.823L44.2206 104.65L44.6212 106.461L45.066 108.254L45.5544 110.03L46.0859 111.788L46.6599 113.527L47.2757 115.246L47.9327 116.945L48.6303 118.624L49.368 120.281L50.1451 121.916L50.9609 123.529L51.8151 125.119L52.7068 126.685L53.6355 128.226L54.6006 129.743L55.6015 131.235L56.6376 132.7L57.7082 134.138L58.8129 135.549L59.9509 136.933L61.1217 138.287L62.3246 139.613L63.5591 140.909L64.8246 142.174L66.1204 143.409L67.4459 144.612L68.8006 145.782L70.1838 146.92L71.595 148.025L73.0335 149.096L74.4987 150.132L75.99 151.133L77.5068 152.098L79.0486 153.027L80.6146 153.918L82.2044 154.772L83.8172 155.588L85.4525 156.365L87.1098 157.103L88.7883 157.801L90.4874 158.458L92.2067 159.073L93.9454 159.647L95.703 160.179L97.4788 160.667L99.2723 161.112L101.083 161.513L102.91 161.868L104.753 162.179L106.611 162.443L108.483 162.66L110.37 162.83L112.27 162.953L114.183 163.027L116.108 163.051L118.033 163.027L119.946 162.953L121.846 162.83L123.733 162.66L125.606 162.443L127.464 162.179L129.307 161.868L131.134 161.513L132.944 161.112L134.738 160.667L136.514 160.179L138.271 159.647L140.01 159.073L141.729 158.458L143.428 157.801L145.107 157.103L146.764 156.365L148.399 155.588L150.012 154.772L151.602 153.918L153.168 153.027L154.71 152.098L156.227 151.133L157.718 150.132L159.183 149.096L160.622 148.025L162.033 146.92L163.416 145.782L164.771 144.612L166.096 143.409L167.392 142.174L168.657 140.909L169.892 139.613L171.095 138.287L172.266 136.933L173.404 135.549L174.508 134.138L175.579 132.7L176.615 131.235L177.616 129.743L178.581 128.226L179.51 126.685L180.401 125.119L181.256 123.529L182.071 121.916L182.849 120.281L183.586 118.624L184.284 116.945L184.941 115.246L185.557 113.527L186.131 111.788L186.662 110.03L187.151 108.254L187.595 106.461L187.996 104.65L188.352 102.823L188.662 100.981L188.926 99.1226L189.144 97.2499L189.314 95.3632L189.436 93.4631L189.51 91.5502L189.535 89.625" sodipodi:nodetypes="ccccccccccccccccccccccccccccccccccccccccccccccccccccccccccccccccccccccccccccccccccccccccccccccccccccccccccccccccccccccccccccccccccccccccccccccccccccccccccccccccccccccccccccccccccccccccccccccccccccccccccccccccccccccccccccccccccccccccccccccccccccccccccccccccccccccccccccccccccccccccccccccccccccccccccccccccccccccccccccccccccccccccccccccccccccccccccccccccccccccccccccccccccccccccccccccccccccccccccccccccccccccccccccccccccccccccccccccccccccccccccccccccccccccccccccccccccccccccccccccccccccccccccccccccccccccccccccccccccccccccccccccccccccccccccccccccccccccccccccccccccccccccccccccccccccccccccccccccccccccccccccccccccccccccccccccccccccccccccccccccccccccccccccccccccccccccccccccccccccccccccccccccccccccccccccccccccccccccccccccccccccccccccccccccccccccccccccccccccccccccccccc"/><path id="shape1" transform="translate(95.0627840001312, 60.6486009874863)" fill="#ea8e89" fill-rule="evenodd" stroke="none" stroke-width="1" stroke-linecap="square" stroke-linejoin="bevel" d="M32.9372 15.4241C41.3107 15.4241 49.042 18.1739 55.2773 22.8197C65.8875 11.4969 55.3009 22.7714 65.8629 11.5068C56.8312 4.30465 45.3869 0 32.9372 0C20.4822 0 9.03349 4.3083 0 11.5159C10.154 23.2235 -0.101817 11.5746 10.2097 23.2228C16.5211 18.3711 24.3611 15.4241 32.9372 15.4241" sodipodi:nodetypes="ccccccc"/><path id="shape2" transform="translate(75.1486045105187, 74.6728188619248)" fill="#7050a7" fill-rule="evenodd" stroke="none" stroke-width="1" stroke-linecap="square" stroke-linejoin="bevel" d="M15.424 38.8272C15.424 59.4977 32.1808 76.2545 52.8514 76.2545C73.5219 76.2545 90.2787 59.4977 90.2787 38.8272C90.2787 28.0175 85.6962 18.2782 78.3678 11.446C88.7269 -0.0113214 78.3477 11.4232 88.7256 0.015569C99.166 9.67048 105.703 23.4855 105.703 38.8272C105.703 68.0162 82.0404 91.6786 52.8514 91.6786C23.6624 91.6786 0 68.0162 0 38.8272C0 23.4772 6.54387 9.65563 16.9941 0C27.1161 11.5787 16.9273 0.0188062 27.1464 11.623C19.9281 18.446 15.424 28.1106 15.424 38.8272" sodipodi:nodetypes="ccccccccccc"/><path id="shape3" fill="#7050a7" fill-rule="evenodd" stroke="none" stroke-width="1" stroke-linecap="square" stroke-linejoin="bevel" d="M127.938 92.2321L128.722 91.4475L156.784 119.509L146.884 129.409L135 117.524L135 153.602L121 153.602L121 117.399L108.991 129.409L99.0914 119.509L127.153 91.4475L127.938 92.2321" sodipodi:nodetypes="cccccccccccc"/>
</svg>
